<svg width="25" height="25" viewBox="0 0 25 25" fill="none" xmlns="http://www.w3.org/2000/svg">
<g clip-path="url(#clip0_101_151)">
<path fill-rule="evenodd" clip-rule="evenodd" d="M16.0248 3.21012C16.6323 3.21012 17.2389 3.29618 17.8156 3.49054C21.3693 4.65094 22.6498 8.56726 21.5801 11.9904C20.9735 13.7397 19.9819 15.3362 18.6831 16.6407C16.8239 18.449 14.7838 20.0542 12.5877 21.437L12.347 21.583L12.0966 21.4273C9.89282 20.0542 7.84112 18.449 5.96464 16.631C4.67451 15.3266 3.68187 13.7397 3.06569 11.9904C1.97774 8.56726 3.25825 4.65094 6.85041 3.47024C7.12962 3.37354 7.41749 3.30585 7.70633 3.26813H7.82186C8.09241 3.22849 8.36102 3.21012 8.6306 3.21012H8.73651C9.34307 3.22849 9.93037 3.33486 10.4994 3.52922H10.5562C10.5947 3.5476 10.6236 3.5679 10.6428 3.58628C10.8556 3.65493 11.0568 3.73229 11.2494 3.83866L11.6152 4.00305C11.7037 4.05041 11.8029 4.12277 11.8886 4.1853C11.943 4.22492 11.9919 4.2606 12.0292 4.28348C12.045 4.29279 12.0609 4.30215 12.077 4.31159C12.1596 4.35999 12.2456 4.41041 12.3181 4.46624C13.3877 3.64526 14.6865 3.20045 16.0248 3.21012ZM18.5858 10.1711C18.9806 10.1605 19.3175 9.84234 19.3464 9.43524V9.32017C19.3753 7.96541 18.5579 6.73829 17.3149 6.26447C16.9202 6.12812 16.4869 6.34183 16.3425 6.74796C16.2077 7.1541 16.4196 7.59892 16.8239 7.743C17.4411 7.97508 17.8541 8.58525 17.8541 9.26118V9.29116C17.8358 9.5126 17.9022 9.72631 18.037 9.89069C18.1718 10.0551 18.374 10.1508 18.5858 10.1711Z" fill="#ECF6EE"/>
</g>
<defs>
<clipPath id="clip0_101_151">
<rect width="20.0002" height="20" fill="white" transform="translate(2.31812 2.83691)"/>
</clipPath>
</defs>
</svg>
