<svg width="25" height="24" viewBox="0 0 25 24" fill="none" xmlns="http://www.w3.org/2000/svg">
<path d="M23.9322 22.2216L18.5582 16.8477C20.2265 14.8108 21.0472 12.2102 20.8505 9.58474C20.6538 6.95925 19.4547 4.51005 17.5016 2.74449C15.5484 0.978924 12.991 0.0323164 10.3591 0.100759C7.72712 0.169201 5.22235 1.24745 3.36364 3.11213C1.50493 4.97682 0.434728 7.48504 0.374735 10.1172C0.314743 12.7494 1.26956 15.3037 3.04138 17.2512C4.8132 19.1986 7.26625 20.3898 9.89235 20.5781C12.5184 20.7664 15.1163 19.9373 17.1479 18.2626L22.5218 23.6304C22.7106 23.8087 22.9614 23.9064 23.2211 23.9027C23.4807 23.899 23.7287 23.7942 23.9123 23.6106C24.0959 23.427 24.2007 23.179 24.2044 22.9194C24.2081 22.6597 24.1105 22.4089 23.9322 22.2201V22.2216ZM4.73417 16.175C3.37736 14.8182 2.5329 13.0331 2.34465 11.1236C2.15639 9.21405 2.63598 7.29833 3.70173 5.70276C4.76747 4.10719 6.35344 2.93046 8.18945 2.37304C10.0255 1.81562 11.9979 1.91198 13.7709 2.64572C15.5438 3.37946 17.0075 4.70518 17.9126 6.39704C18.8178 8.0889 19.1084 10.0422 18.7349 11.9243C18.3614 13.8064 17.3469 15.5007 15.8643 16.7187C14.3817 17.9368 12.5227 18.6031 10.6039 18.6042C9.51387 18.6081 8.43391 18.3953 7.42678 17.9783C6.41965 17.5613 5.50542 16.9483 4.7372 16.175H4.73417Z" fill="#ECF6EE"/>
</svg>
