<svg width="33" height="32" viewBox="0 0 33 32" fill="none" xmlns="http://www.w3.org/2000/svg">
<path fill-rule="evenodd" clip-rule="evenodd" d="M23.5246 18.3442C22.1462 18.3442 21.0252 17.2232 21.0252 15.8448C21.0252 14.4663 22.1462 13.3453 23.5246 13.3453C24.903 13.3453 26.024 14.4663 26.024 15.8448C26.024 17.2232 24.903 18.3442 23.5246 18.3442ZM8.52812 25.9986C7.1497 25.9986 6.02871 24.8776 6.02871 23.4992C6.02871 22.1208 7.1497 20.9998 8.52812 20.9998C11.8311 20.9998 11.8323 25.9986 8.52812 25.9986ZM8.52812 11.0021C7.1497 11.0021 6.02871 9.88116 6.02871 8.50273C6.02871 7.12431 7.1497 6.00332 8.52812 6.00332C11.8311 6.00332 11.8323 11.0021 8.52812 11.0021ZM23.5246 10.8459C21.9987 10.8459 20.6503 11.5444 19.733 12.6216L13.4757 9.0089C13.7919 5.90213 11.3637 3.50391 8.52812 3.50391C5.76752 3.50391 3.5293 5.74213 3.5293 8.50273C3.5293 11.2633 5.76752 13.5016 8.52812 13.5016C10.2115 13.5016 11.6924 12.6631 12.5984 11.3884L18.6245 14.8675C18.4896 15.5474 18.4933 16.2023 18.6358 16.8809L12.4534 20.4387C11.5387 19.2665 10.129 18.5004 8.52812 18.5004C5.76752 18.5004 3.5293 20.7386 3.5293 23.4992C3.5293 26.2598 5.76752 28.498 8.52812 28.498C11.4799 28.498 13.9319 25.9086 13.4507 22.7481L19.7692 19.1127C20.6853 20.165 22.02 20.8436 23.5246 20.8436C26.2852 20.8436 28.5234 18.6054 28.5234 15.8448C28.5234 13.0842 26.2852 10.8459 23.5246 10.8459Z" fill="white"/>
</svg>
